<svg xmlns="http://www.w3.org/2000/svg" xmlns:xlink="http://www.w3.org/1999/xlink" version="1.1"
    x="0px" y="0px" viewBox="4 4 90 90"
    xml:space="preserve">
    <g>
        <path fill="#fff" d="M73.1,31L73.1,31c-1.8-1.5-4.2-1.3-5.6,0.4C66,33,66.1,35.5,67.8,37c3.4,3,5.4,7.4,5.4,12c0,4.6-2,9-5.4,12   c-1.7,1.5-1.8,4-0.3,5.6c0.8,0.9,1.8,1.3,3,1.3c1,0,1.9-0.4,2.6-1c5.2-4.6,8.1-11.1,8.1-18C81.2,42.1,78.2,35.6,73.1,31z"/>
        <path fill="#fff" d="M84.2,23.9L84.2,23.9c-1.6-1.5-4.2-1.4-5.7,0.2c-0.7,0.8-1.1,1.8-1,2.9c0,1.1,0.5,2.1,1.3,2.8   c5.4,4.9,8.4,11.9,8.4,19.2s-3.1,14.3-8.4,19.2c-1.6,1.5-1.7,4-0.2,5.7c0.8,0.8,1.8,1.3,2.9,1.3c1,0,2-0.4,2.7-1.1   c7-6.4,11-15.6,11-25.1C95.2,39.5,91.2,30.4,84.2,23.9z"/>
        <path fill="#fff" d="M58.5,7.6c-1.1-0.6-3-1-5.8,0.6L25.3,25H11.4C6,25,2,28.3,2,32.9v32.3c0,5.1,4.6,9.8,9.4,9.8h13.9   l27.6,15.6c1,0.6,2,0.4,2.7,0.4c0.1,0,0.1,0,0.2,0H56c1.1,0,1.7-0.2,2.2-0.5c0.1-0.1,0.2,0,0.3-0.1c1.7-1,2.5-2.7,2.5-5.2V12.8   C61,10.3,60.1,8.6,58.5,7.6z M10.5,65.4l0-32c0,0,0.1-0.3,0.6-0.3c0.1,0,0.2,0,0.3,0H22v34H11.4C11,67,10.6,66,10.5,65.4z M30,68.1   V30.1l23-13.6v65.2L30,68.1z"/>
    </g>
</svg>
