<svg xmlns="http://www.w3.org/2000/svg" viewBox="5 5 16 16" x="0px" y="0px">
    <path fill="#fff" 
        d="M83.9969545,18.9998081 L83.9969545,9.14812399 L78.9994924,7.00019189 L78.9994924,16.851876 L83.9969545,18.9998081 Z M81.5312847,7 L84.3914612,8.22931695 C84.7585372,8.38708794 84.9964469,8.7484073 84.9964469,9.14812399 L84.9964469,17 L86.4956855,17 C86.7716877,17 86.9954317,16.7761424 86.9954317,16.5 L86.9954317,15 L87.9949241,15 L87.9949241,16.5 C87.9949241,17.3284271 87.3236921,18 86.4956855,18 L84.9964469,18 L84.9964469,18.9998081 C84.9964469,19.5520929 84.5489589,19.9998081 83.9969545,19.9998081 C83.8613079,19.9998081 83.7270808,19.972183 83.6024478,19.9186151 L78.6049857,17.770683 C78.2379097,17.6129121 78,17.2515927 78,16.851876 L78,7.00019189 C78,6.44790714 78.447488,6.00019189 78.9994924,6.00019189 L78.9994924,6 L86.4956855,6 C87.3236921,6 87.9949241,6.67157288 87.9949241,7.5 L87.9949241,9 L86.9954317,9 L86.9954317,7.5 C86.9954317,7.22385763 86.7716877,7 86.4956855,7 L81.5312847,7 Z M90.0867581,11.503553 L88.9408934,10.3571064 L89.6476412,9.64999962 L92,12.003553 L89.6476412,14.3571064 L88.9408934,13.6499996 L90.0867581,12.503553 L86.9954317,12.503553 L86.9954317,11.503553 L90.0867581,11.503553 Z"
        transform="translate(-72)" />
</svg>