<svg xmlns="http://www.w3.org/2000/svg" viewBox="-10 -10 120 120" style="enable-background:new 0 0 100 100" xml:space="preserve">
    <path fill="#fff" d="M8.373 17.763h5.385a2.5 2.5 0 1 0 0-5H8.373a2.5 2.5 0 1 0 0 5zM91.627 12.763h-46.34a2.5 2.5 0 1 0 0 5h46.34a2.5 2.5 0 1 0 0-5zM57.213 50a2.5 2.5 0 0 0-2.5-2.5H8.373a2.5 2.5 0 1 0 0 5h46.34a2.5 2.5 0 0 0 2.5-2.5zM91.627 47.5h-5.385a2.5 2.5 0 1 0 0 5h5.385a2.5 2.5 0 1 0 0-5zM32.026 84.727a2.5 2.5 0 0 0-2.5-2.5H8.373a2.5 2.5 0 1 0 0 5h21.153a2.5 2.5 0 0 0 2.5-2.5zM94.127 84.727a2.5 2.5 0 0 0-2.5-2.5H61.065a2.5 2.5 0 1 0 0 5h30.562a2.5 2.5 0 0 0 2.5-2.5zM29.521 5c-5.662 0-10.269 4.606-10.269 10.268s4.606 10.268 10.269 10.268c5.661 0 10.268-4.606 10.268-10.268S35.183 5 29.521 5zM70.479 60.268c5.662 0 10.269-4.606 10.269-10.268s-4.606-10.268-10.269-10.268c-5.661 0-10.268 4.606-10.268 10.268s4.606 10.268 10.268 10.268zM45.297 95c5.661 0 10.268-4.606 10.268-10.268s-4.606-10.268-10.268-10.268c-5.662 0-10.269 4.606-10.269 10.268S39.635 95 45.297 95z"/>
</svg>