<svg
    xmlns="http://www.w3.org/2000/svg" xmlns:xlink="http://www.w3.org/1999/xlink" version="1.1"
    x="0px" y="0px" viewBox="0 0 100 100" enable-background="new 0 0 100 100" xml:space="preserve"
>
    <path fill="#fff" d="M69.246,18.19L50.001,37.435L30.754,18.188c-1.652-1.652-4.331-1.652-5.983,0L18.19,24.77c-1.653,1.653-1.652,4.33,0,5.983  l19.246,19.246L18.19,69.245c-1.653,1.652-1.651,4.331,0,5.982l6.58,6.58c1.653,1.652,4.332,1.653,5.983,0.001L50,62.563  L69.245,81.81c1.653,1.653,4.33,1.653,5.982,0l6.581-6.581c1.652-1.651,1.652-4.331,0-5.982L62.563,50l19.245-19.245  c1.653-1.653,1.651-4.332,0-5.983l-6.581-6.581C73.576,16.537,70.897,16.538,69.246,18.19z"/>
</svg>