<svg xmlns="http://www.w3.org/2000/svg" version="1.2" baseProfile="tiny" viewBox="5 5 82 89" xml:space="preserve">
    <path fill="#fff" d="M77.5 67.5H67.336a9.939 9.939 0 0 1-7.894-3.86l-7.9-10.157-6.334 8.144 6.341 8.152c3.816 4.907 9.57 7.722 15.787 7.722H77.5v5l15-10-15-10V67.5z"/>
    <path fill="#fff" d="M77.5 22.5H67.336c-6.217 0-11.971 2.814-15.787 7.722L42.5 41.856l-9.049-11.634c-3.816-4.907-9.57-7.722-15.787-7.722H7.5v10h10.164a9.939 9.939 0 0 1 7.894 3.86L36.166 50 25.558 63.64a9.936 9.936 0 0 1-7.894 3.86H7.5v10h10.164c6.217 0 11.971-2.814 15.787-7.722L59.442 36.36a9.936 9.936 0 0 1 7.894-3.86H77.5v5l1.875-1.25 11.563-7.708L92.5 27.5l-15-10v5z"/>
</svg>
