<?xml version="1.0" encoding="UTF-8"?>
<svg width="1200pt" height="1200pt" version="1.1" viewBox="0 0 1200 1200" xmlns="http://www.w3.org/2000/svg">
 <path fill="#fff"  d="m0 600c0-159.13 63.215-311.74 175.73-424.27 112.52-112.52 265.14-175.73 424.27-175.73s311.74 63.215 424.27 175.73c112.52 112.52 175.73 265.14 175.73 424.27s-63.215 311.74-175.73 424.27c-112.52 112.52-265.14 175.73-424.27 175.73s-311.74-63.215-424.27-175.73c-112.52-112.52-175.73-265.14-175.73-424.27zm75 0c0 139.24 55.312 272.77 153.77 371.23s231.99 153.77 371.23 153.77 272.77-55.312 371.23-153.77 153.77-231.99 153.77-371.23-55.312-272.77-153.77-371.23-231.99-153.77-371.23-153.77c-139.11 0.42578-272.4 55.875-370.76 154.24s-153.81 231.65-154.24 370.76zm548.87 228.11c-7.0273-7.0312-10.977-16.57-10.977-26.512 0-9.9453 3.9492-19.48 10.977-26.516l138-137.98h-424.74c-13.398 0-25.777-7.1484-32.477-18.75-6.6992-11.602-6.6992-25.898 0-37.5 6.6992-11.602 19.078-18.75 32.477-18.75h422.4l-135.66-135.66c-9.4688-9.4727-13.168-23.285-9.6992-36.223 3.4727-12.941 13.582-23.047 26.523-26.516 12.941-3.4648 26.75 0.23828 36.223 9.7148l221.49 227.36-221.53 227.32c-7.0312 7.0352-16.574 10.988-26.523 10.988-9.9453 0-19.488-3.9531-26.52-10.988z"/>
</svg>
